#!OML:ASF H:\Male1\Project 1\Capture day 1\Session 1\Male1.ASF
:FULLY-SPECIFIED
:DEGREES
142
root 5.3336 15.3075 2.38948 173.437 -31.397 -178.315
lowerback 10.0893 1.67942 0.147395
upperback 7.66698 1.57017 -0.963622
thorax 2.35738 0.527388 -1.21423
lowerneck 4.3943 2.75633 7.63781
upperneck 3.14728 3.95482 -4.61299
head 0.500009 2.02027 -2.83198
rclavicle 5.77469e-014 2.38542e-014
rhumerus 25.2299 43.5761 -78.0693
rradius 134.206
rwrist -51.2895
rhand -40.5713 25.6465
rfingers 7.12502
rthumb -13.5184 -3.89469
lclavicle 5.77469e-014 2.38542e-014
lhumerus 34.985 -38.8279 63.5305
lradius 135.185
lwrist 42.5205
lhand -49.7655 7.63589
lfingers 7.12502
lthumb -22.364 36.3614
rfemur -5.41317 5.75576 22.6875
rtibia 28.4204
rfoot -24.5328 -29.2902
rtoes -21.9544
lfemur -5.43144 -11.2785 -16.8053
ltibia 27.8171
lfoot -17.1949 17.8357
ltoes -19.1146
143
root 5.33657 15.2963 2.39202 173.293 -31.3477 -178.313
lowerback 10.3108 1.83274 0.411076
upperback 7.72885 1.77832 -1.0143
thorax 2.31872 0.637491 -1.43546
lowerneck 4.5579 2.61108 7.42012
upperneck 2.94594 3.76072 -4.39894
head 0.385192 1.92117 -2.723
rclavicle -5.03919e-014 2.06736e-014
rhumerus 25.282 43.1184 -77.8179
rradius 134.063
rwrist -51.4298
rhand -40.648 26.2283
rfingers 7.12502
rthumb -13.5924 -3.30801
lclavicle -5.03919e-014 2.06736e-014
lhumerus 35.4613 -39.0938 63.1425
lradius 135.126
lwrist 42.569
lhand -50.1839 7.81451
lfingers 7.12502
lthumb -22.7656 36.4913
rfemur -5.5865 5.32948 22.6748
rtibia 28.8452
rfoot -23.6807 -29.5307
rtoes -24.4053
lfemur -5.54685 -10.9571 -16.7723
ltibia 28.2931
lfoot -17.3305 17.5112
ltoes -19.2423
144
root 5.33841 15.2853 2.39112 173.151 -31.2366 -178.364
lowerback 10.4559 1.84935 0.318181
upperback 7.84791 1.77057 -1.09361
thorax 2.36481 0.62256 -1.46784
lowerneck 4.82687 2.62324 7.69864
upperneck 2.61824 3.8094 -4.48763
head 0.245159 1.94903 -2.81342
rclavicle 9.54166e-015 -3.18055e-014
rhumerus 25.5875 43.04 -77.5915
rradius 134.039
rwrist -51.7596
rhand -40.3166 25.6604
rfingers 7.12502
rthumb -13.273 -3.897
lclavicle 9.54166e-015 -3.18055e-014
lhumerus 35.7134 -38.8777 62.5299
lradius 134.985
lwrist 42.6617
lhand -50.5334 7.25728
lfingers 7.12502
lthumb -23.1009 35.8924
rfemur -5.68518 4.99554 22.6211
rtibia 29.2454
rfoot -23.0351 -29.605
rtoes -26.5688
lfemur -5.56513 -10.5995 -16.7851
ltibia 28.7028
lfoot -17.5712 17.1621
ltoes -18.6827
145
root 5.34031 15.2725 2.38958 172.969 -31.0774 -178.272
lowerback 10.4949 1.8507 0.313558
upperback 8.00022 1.74883 -1.10498
thorax 2.50422 0.602672 -1.47544
lowerneck 5.0707 2.69569 7.92909
upperneck 2.32608 3.93626 -4.63505
head 0.126075 2.01554 -2.91544
rclavicle -1.49089e-014 2.42517e-014
rhumerus 25.9675 43.0606 -77.1222
rradius 133.975
rwrist -52.1305
rhand -40.1409 25.3997
rfingers 7.12502
rthumb -13.1036 -4.16866
lclavicle -1.49089e-014 2.42517e-014
lhumerus 35.9295 -38.4049 62.0523
lradius 134.765
lwrist 42.8132
lhand -50.6334 6.74359
lfingers 7.12502
lthumb -23.197 35.3667
rfemur -5.75773 4.83111 22.6984
rtibia 29.6085
rfoot -23.076 -29.3077
rtoes -26.7641
lfemur -5.56899 -10.2614 -16.6478
ltibia 29.0202
lfoot -17.7741 16.8931
ltoes -18.1249
146
root 5.34271 15.2606 2.3872 172.896 -30.9368 -178.295
lowerback 10.4762 1.86664 0.295025
upperback 8.15468 1.74724 -1.10699
thorax 2.67721 0.592846 -1.46585
lowerneck 5.27388 2.75951 7.86523
upperneck 2.02215 4.03436 -4.71543
head 0.000694082 2.06519 -2.93934
rclavicle 3.16068e-014 -1.11319e-014
rhumerus 26.4262 43.0363 -76.3516
rradius 133.917
rwrist -52.5567
rhand -40.372 25.6004
rfingers 7.12502
rthumb -13.3263 -3.95349
lclavicle 3.16068e-014 -1.11319e-014
lhumerus 36.1383 -37.8659 61.6247
lradius 134.55
lwrist 42.7381
lhand -50.5897 6.70614
lfingers 7.12502
lthumb -23.155 35.3345
rfemur -5.80254 4.76207 22.672
rtibia 29.8601
rfoot -23.5091 -28.8334
rtoes -25.5977
lfemur -5.62001 -9.96758 -16.6151
ltibia 29.3048
lfoot -17.8785 16.7738
ltoes -18.4818
147
root 5.34322 15.2502 2.38206 172.916 -30.784 -178.421
lowerback 10.4543 1.78808 0.0707269
upperback 8.23127 1.61394 -1.11829
thorax 2.75891 0.511399 -1.34085
lowerneck 5.53726 2.90742 7.8324
upperneck 1.797 4.2475 -4.84256
head -0.100384 2.17338 -2.98702
rclavicle 1.13307e-014 -3.97569e-016
rhumerus 26.9151 43.261 -75.6323
rradius 133.42
rwrist -52.2626
rhand -40.7183 27.6119
rfingers 7.12502
rthumb -13.6602 -1.9198
lclavicle 1.13307e-014 -3.97569e-016
lhumerus 35.9816 -37.2183 61.1302
lradius 134.33
lwrist 42.2888
lhand -50.3242 6.35532
lfingers 7.12502
lthumb -22.9003 35.0155
rfemur -5.84137 4.70528 22.56
rtibia 29.9987
rfoot -23.4814 -28.6377
rtoes -25.4986
lfemur -5.65718 -9.73829 -16.687
ltibia 29.5324
lfoot -18.0261 16.713
ltoes -18.6841
148
root 5.33993 15.2427 2.37531 172.87 -30.6339 -178.366
lowerback 10.4299 1.73047 0.0611351
upperback 8.21054 1.53893 -1.12835
thorax 2.74834 0.474397 -1.3397
lowerneck 5.83106 3.02267 7.93992
upperneck 1.77205 4.424 -4.9366
head -0.142679 2.26397 -3.04829
rclavicle 6.50026e-014 -7.95139e-016
rhumerus 27.121 43.3236 -75.0635
rradius 133.234
rwrist -52.103
rhand -40.7974 26.861
rfingers 7.12502
rthumb -13.7364 -2.66559
lclavicle 6.50026e-014 -7.95139e-016
lhumerus 35.7781 -36.7929 60.5234
lradius 134.144
lwrist 41.7923
lhand -50.2594 5.71774
lfingers 7.12502
lthumb -22.838 34.3856
rfemur -5.85293 4.63496 22.6061
rtibia 30.0527
rfoot -23.1781 -28.6023
rtoes -25.9878
lfemur -5.63596 -9.6529 -16.6169
ltibia 29.6472
lfoot -18.2065 16.7036
ltoes -18.3198
149
root 5.33665 15.245 2.36788 172.792 -30.5387 -178.174
lowerback 10.2878 1.6997 0.226386
upperback 8.23821 1.512 -1.10465
thorax 2.85895 0.468375 -1.40272
lowerneck 6.11876 3.11084 7.87099
upperneck 1.66677 4.55421 -4.92854
head -0.219049 2.3295 -3.0426
rclavicle 8.15017e-014 -4.29375e-014
rhumerus 27.4201 43.2091 -74.2252
rradius 132.93
rwrist -51.4864
rhand -41.2005 26.4348
rfingers 7.12502
rthumb -14.1249 -3.06511
lclavicle 8.15017e-014 -4.29375e-014
lhumerus 35.7331 -36.2875 59.8056
lradius 133.943
lwrist 40.9688
lhand -50.5299 5.5821
lfingers 7.12502
lthumb -23.0976 34.2177
rfemur -5.80303 4.62936 22.78
rtibia 29.9803
rfoot -23.2958 -28.418
rtoes -25.4121
lfemur -5.62128 -9.66897 -16.4348
ltibia 29.7003
lfoot -18.3203 16.7388
ltoes -18.0788
150
root 5.3355 15.2538 2.35969 172.827 -30.4797 -178.146
lowerback 10.1473 1.59902 0.289116
upperback 8.295 1.3791 -1.22248
thorax 2.99744 0.405945 -1.54776
lowerneck 6.31976 3.30901 7.87503
upperneck 1.47978 4.83131 -4.88672
head -0.295376 2.46803 -3.04034
rclavicle 1.59028e-014 -6.36111e-015
rhumerus 27.8972 43.0277 -73.3921
rradius 132.51
rwrist -50.1877
rhand -41.582 25.6766
rfingers 7.12502
rthumb -14.4924 -3.79724
lclavicle 1.59028e-014 -6.36111e-015
lhumerus 35.6432 -35.5611 58.7238
lradius 133.604
lwrist 38.7595
lhand -51.0249 6.76913
lfingers 7.12502
lthumb -23.5725 35.3444
rfemur -5.77726 4.70354 22.836
rtibia 29.8662
rfoot -23.0933 -28.5392
rtoes -25.8555
lfemur -5.55497 -9.74742 -16.4131
ltibia 29.6153
lfoot -18.3691 16.8072
ltoes -17.6086
151
root 5.33545 15.2533 2.35254 172.9 -30.3728 -178.278
lowerback 10.0833 1.47977 0.0358197
upperback 8.31273 1.20008 -1.29052
thorax 3.04034 0.304838 -1.46257
lowerneck 6.66083 3.5668 7.92333
upperneck 1.20566 5.19937 -5.01757
head -0.412518 2.65491 -3.11288
rclavicle -2.04748e-014 -1.74931e-014
rhumerus 28.2927 42.7583 -72.3754
rradius 132.011
rwrist -48.1688
rhand -41.3482 24.2311
rfingers 7.12502
rthumb -14.2671 -5.25886
lclavicle -2.04748e-014 -1.74931e-014
lhumerus 35.172 -34.4482 57.768
lradius 133.113
lwrist 35.3227
lhand -51.1682 8.58044
lfingers 7.12502
lthumb -23.7099 37.138
rfemur -5.72681 4.87943 22.7916
rtibia 29.7436
rfoot -22.3847 -29.036
rtoes -27.6551
lfemur -5.37898 -9.86951 -16.5531
ltibia 29.4136
lfoot -18.4017 16.9847
ltoes -16.938
152
root 5.3349 15.2643 2.34503 172.892 -30.2028 -178.325
lowerback 10.101 1.48446 -0.0504643
upperback 8.2854 1.20096 -1.34796
thorax 3.00083 0.302869 -1.47419
lowerneck 7.09354 3.63792 8.16233
upperneck 0.878254 5.33827 -5.28238
head -0.571175 2.73031 -3.27038
rclavicle 2.78299e-014 7.95139e-015
rhumerus 28.0964 41.72 -71.5867
rradius 131.32
rwrist -44.3947
rhand -41.2311 22.145
rfingers 7.12502
rthumb -14.1543 -7.3528
lclavicle 2.78299e-014 7.95139e-015
lhumerus 34.5797 -32.9744 57.0581
lradius 132.592
lwrist 32.1223
lhand -50.4807 9.69854
lfingers 7.12502
lthumb -23.0504 38.34
rfemur -5.57922 5.28166 22.8201
rtibia 29.6584
rfoot -23.1908 -28.7484
rtoes -25.8273
lfemur -5.08696 -9.98124 -16.6217
ltibia 29.0849
lfoot -18.3315 17.3007
ltoes -17.0536
153
root 5.33156 15.272 2.33815 172.952 -30.0407 -178.433
lowerback 10.1049 1.7909 0.233596
upperback 8.29484 1.62515 -1.62337
thorax 3.03979 0.53381 -1.95027
lowerneck 7.19171 3.35633 8.83852
upperneck 0.663003 5.02402 -5.40608
head -0.663026 2.57587 -3.44511
rclavicle 5.06901e-014 -3.10104e-014
rhumerus 27.2719 39.7598 -71.2049
rradius 130.21
rwrist -39.3589
rhand -41.1944 20.6108
rfingers 7.12502
rthumb -14.119 -8.88946
lclavicle 5.06901e-014 -3.10104e-014
lhumerus 34.5674 -31.833 56.1959
lradius 131.983
lwrist 28.9879
lhand -49.3793 9.66106
lfingers 7.12502
lthumb -21.9932 38.4307
rfemur -5.4724 5.52742 22.7596
rtibia 29.5235
rfoot -23.421 -28.678
rtoes -25.2899
lfemur -4.84051 -10.0833 -16.7639
ltibia 28.7806
lfoot -18.2399 17.6253
ltoes -17.4515
154
root 5.33058 15.2805 2.3333 173.125 -29.9165 -178.596
lowerback 10.0714 1.82818 0.116856
upperback 8.25052 1.67155 -1.68421
thorax 3.01063 0.554982 -1.95073
lowerneck 7.43868 3.4288 8.60644
upperneck 0.426372 5.12145 -5.29688
head -0.783969 2.62271 -3.37729
rclavicle -6.69904e-014 1.90833e-014
rhumerus 26.4821 37.8092 -70.4546
rradius 129.303
rwrist -34.2354
rhand -40.3576 19.5408
rfingers 7.12502
rthumb -13.3125 -10.014
lclavicle -6.69904e-014 1.90833e-014
lhumerus 33.5448 -29.9338 55.8651
lradius 131.365
lwrist 24.9975
lhand -48.1878 9.94356
lfingers 7.12502
lthumb -20.8489 38.8433
rfemur -5.4737 5.6533 22.6246
rtibia 29.3408
rfoot -23.1352 -28.7718
rtoes -25.6613
lfemur -4.73215 -10.1705 -16.9269
ltibia 28.517
lfoot -18.1681 17.8539
ltoes -17.493
